<svg width="32" height="32" viewBox="0 0 32 32" fill="none" xmlns="http://www.w3.org/2000/svg">
<path d="M9.14673 25.9143C10.3888 25.1634 11.5163 24.2377 12.4947 23.1656C13.5358 22.0264 14.4753 20.7983 15.3025 19.4954L16.5837 17.4672C16.39 17.3265 16.2387 17.1353 16.1462 16.9145C16.0537 16.6936 16.0235 16.4517 16.059 16.2149L16.133 15.7333C16.1802 15.4257 16.336 15.1452 16.5723 14.9427C16.8085 14.7402 17.1095 14.6291 17.4207 14.6296H18.3073C18.9052 13.7119 19.5151 12.7854 20.137 11.85C20.9208 10.6714 21.7907 9.55225 22.7394 8.50184C23.7044 7.43655 24.784 6.48104 25.9586 5.65267C26.4003 5.34469 26.8628 5.06779 27.3429 4.82399C24.3986 1.7956 20.372 0.0609233 16.1488 0.00157425C11.9256 -0.0577748 7.85187 1.56306 4.82368 4.50753C1.79548 7.45199 0.0609194 11.4789 0.00157416 15.7023C-0.0577711 19.9258 1.56296 23.9998 4.50723 27.0282C4.80279 26.9605 5.10543 26.9288 5.4086 26.9336C6.72411 26.9492 8.01769 26.5961 9.14287 25.9143" fill="#004F87"/>
<path d="M29.3259 7.26429C28.9636 7.51016 28.6144 7.77473 28.2797 8.05691C27.4171 8.81352 26.6459 9.66838 25.9818 10.6041C25.3187 11.5388 24.7166 12.5152 24.179 13.5273C24.037 13.7943 23.8915 14.0574 23.7425 14.3167C24.0644 14.2768 24.369 14.2272 24.6484 14.1718C24.7478 14.1533 24.8486 14.1429 24.9497 14.1409C25.2889 14.144 25.6145 14.2745 25.862 14.5065C26.1094 14.7385 26.2607 15.055 26.2857 15.3933C26.3572 16.7557 24.3651 17.3346 24.0966 17.3636L22.9712 17.484C22.5892 17.5269 22.2327 17.5621 21.9018 17.5896C21.8645 17.5896 21.8271 17.5947 21.7898 17.5986C20.9875 18.9082 20.1196 20.2288 19.2067 21.532C18.1512 23.0362 16.9429 24.4271 15.6012 25.6825C14.252 26.9414 12.7133 27.9804 11.0415 28.7615C10.037 29.2223 8.97636 29.5489 7.88672 29.7331C10.9856 31.5919 14.6247 32.341 18.2058 31.8571C21.7868 31.3732 25.0967 29.6853 27.5912 27.0707C30.0858 24.4561 31.6166 21.0705 31.9319 17.4705C32.2473 13.8705 31.3285 10.2703 29.3265 7.26172" fill="#76787B"/>
</svg>
