<svg width="16" height="24" viewBox="0 0 16 24" fill="none" xmlns="http://www.w3.org/2000/svg">
<path d="M10.2804 8.59275C9.79979 7.82042 9.19023 7.16753 8.46836 6.65208C8.32635 6.55062 8.16317 6.5 8 6.5C7.83683 6.5 7.67365 6.55062 7.53123 6.65229C6.80977 7.16753 6.20021 7.82042 5.72005 8.59275L5.56582 8.84043C5.44172 9.03958 5.49828 9.30463 5.69197 9.43224C5.88607 9.55984 6.14365 9.5019 6.26735 9.30233L6.42198 9.05465C6.84273 8.37791 7.3762 7.8064 7.99349 7.35601C8.6238 7.8064 9.15727 8.37791 9.57843 9.05465L9.73265 9.30233C9.85635 9.50169 10.1139 9.56005 10.308 9.43224C10.5017 9.30463 10.5583 9.03958 10.4342 8.84043L10.2804 8.59275Z" fill="black" fill-opacity="0.4"/>
<path d="M5.71964 15.4072C6.20021 16.1796 6.80977 16.8325 7.53164 17.3479C7.67365 17.4494 7.83683 17.5 8 17.5C8.16317 17.5 8.32635 17.4494 8.46877 17.3477C9.19023 16.8325 9.79979 16.1796 10.28 15.4072L10.4342 15.1596C10.5583 14.9604 10.5017 14.6954 10.308 14.5678C10.1139 14.4402 9.85635 14.4981 9.73265 14.6977L9.57802 14.9454C9.15727 15.6221 8.6238 16.1936 8.00651 16.644C7.3762 16.1936 6.84273 15.6221 6.42157 14.9454L6.26735 14.6977C6.14365 14.4983 5.88607 14.4399 5.69197 14.5678C5.49828 14.6954 5.44172 14.9604 5.56583 15.1596L5.71964 15.4072Z" fill="black" fill-opacity="0.4"/>
</svg>
