<svg width="22" height="22" viewBox="0 0 22 22" fill="none" xmlns="http://www.w3.org/2000/svg">
<path d="M4.53711 1.47461C6.91109 0.881423 9.34848 0.640282 11.7969 0.764648C12.4446 0.796692 12.9433 1.34731 12.9111 1.99512C12.8789 2.64184 12.3614 3.13926 11.6807 3.1084C9.47282 3.00065 7.25806 3.21655 5.10645 3.75293C4.07597 4.01021 3.27485 4.81102 3.01562 5.84375C2.1249 9.41095 2.1249 13.1837 3.01562 16.752C3.27481 17.7834 4.07606 18.5845 5.10645 18.8418C8.67594 19.7335 12.4471 19.7335 16.0166 18.8418C17.047 18.5845 17.8482 17.7835 18.1074 16.751C18.6313 14.6504 18.8507 12.486 18.7578 10.3213C18.7306 9.67385 19.2324 9.12618 19.8799 9.09863C20.5355 9.08091 21.0748 9.5731 21.1035 10.2207C21.2067 12.6112 20.9647 14.9997 20.3857 17.3203C19.9146 19.1959 18.46 20.6508 16.5859 21.1191C14.6154 21.6114 12.5882 21.8584 10.5615 21.8584C8.53486 21.8584 6.50766 21.6114 4.53711 21.1191C2.66303 20.6508 1.20826 19.1959 0.738281 17.3213C-0.246407 13.38 -0.246379 9.2145 0.738281 5.27441C1.20827 3.3986 2.66308 1.94291 4.53711 1.47461ZM15.9873 1.03223C16.9377 0.0825673 18.321 -0.241067 19.5957 0.183594C20.1093 0.354964 20.5839 0.648367 20.9668 1.03125C21.3518 1.41632 21.6456 1.89127 21.8164 2.40527C22.2416 3.681 21.9157 5.06382 20.9678 6.01172L16.0361 10.9424C15.4274 11.5515 14.6593 11.9622 13.8135 12.1318L11.6631 12.5615C11.5381 12.5866 11.4129 12.5986 11.2891 12.5986C10.7938 12.5986 10.313 12.4037 9.95312 12.0449C9.50514 11.5963 9.31183 10.9572 9.43652 10.335L9.86621 8.18555C10.0348 7.34137 10.4466 6.57169 11.0566 5.96191L15.9873 1.03223ZM18.4746 2.34863C18.1685 2.34863 17.87 2.46831 17.6465 2.69238L12.7158 7.62207C12.4351 7.90289 12.2459 8.25705 12.168 8.64551L11.873 10.126L13.3525 9.83008C13.7411 9.75215 14.0951 9.56243 14.376 9.28223L19.3076 4.35156C19.6229 4.03582 19.7312 3.57358 19.5879 3.14551C19.5328 2.97766 19.4325 2.81688 19.3076 2.69141C19.1826 2.56652 19.0198 2.46732 18.8525 2.41113C18.7276 2.36939 18.6006 2.34866 18.4746 2.34863Z" fill="#191919"/>
</svg>
