<svg width="12" height="12" viewBox="0 0 12 12" fill="none" xmlns="http://www.w3.org/2000/svg">
<path d="M9.19048 5.04326V2.47953C9.19048 1.50949 8.50356 0.646714 7.5247 0.384129L7.30899 0.323749C5.54124 -0.143982 3.71251 -0.102389 1.99925 0.432205C1.22968 0.677744 0.662915 1.27266 0.480636 2.03581L0.46071 2.12842C0.15533 3.39975 0 4.71267 0 6.03028C0 7.34729 0.15533 8.66022 0.460109 9.92921C0.654092 10.7504 1.33753 11.3963 2.19917 11.5751C3.55369 11.8582 4.94813 12 6.34076 12C7.66011 12 8.97832 11.8728 10.2602 11.6185C10.2619 11.6182 10.2632 11.617 10.2648 11.6166C10.2726 11.615 10.2806 11.6144 10.2884 11.6126C10.3598 11.6003 10.4367 11.5868 10.4572 11.5797L10.5193 11.5692C10.5439 11.5645 10.5685 11.5592 10.592 11.5522C10.8135 11.4854 11.0158 11.3863 11.1869 11.2621C11.7061 10.8963 12.0039 10.3336 12.0039 9.71818V6.03028C12.0039 5.86439 11.9353 5.70558 11.814 5.59244C11.116 4.93847 10.0883 4.74569 9.19048 5.04326ZM2.44417 10.3999C2.03562 10.3155 1.7156 10.0224 1.62827 9.65138C1.34402 8.47152 1.20039 7.25294 1.20039 6.03028C1.20039 4.80702 1.34402 3.58845 1.63121 2.39568L1.65114 2.30253C1.73204 1.96432 1.99811 1.69237 2.36033 1.5775C3.16507 1.32601 4.0003 1.19883 4.84261 1.19883C5.56123 1.19883 6.2874 1.29498 6.99431 1.48195L7.20768 1.54172C7.67601 1.66717 7.99016 2.04463 7.99016 2.47953V6.03028V9.71818C7.99016 9.85785 8.01056 9.99451 8.04147 10.1283C8.04615 10.1486 8.04933 10.1689 8.05468 10.189C8.08841 10.3154 8.1363 10.4366 8.19524 10.5529C8.20617 10.5744 8.21727 10.5951 8.22897 10.6161C8.24482 10.6446 8.25772 10.6747 8.27501 10.7023C6.33602 10.8992 4.34907 10.7984 2.44417 10.3999ZM10.8035 9.71818C10.8035 9.93797 10.691 10.1425 10.4888 10.2855C10.4254 10.3313 10.3546 10.367 10.2719 10.394L10.2075 10.4063C10.1699 10.4163 10.1283 10.4221 10.0656 10.4327C10.0642 10.4329 10.0629 10.4333 10.0614 10.4336C10.0509 10.4341 10.0401 10.435 10.0299 10.435C9.84638 10.4367 9.65239 10.3893 9.49941 10.2773C9.30596 10.1437 9.19054 9.93503 9.19054 9.71818V6.36321L9.27199 6.31219C9.74326 6.01798 10.3522 6.03028 10.8036 6.32042L10.8035 9.71818Z" fill="#191919" fill-opacity="0.6"/>
<path d="M2.79941 5.23555H4.21257C4.5443 5.23555 4.81277 4.96708 4.81277 4.63535C4.81277 4.30362 4.5443 4.03516 4.21257 4.03516H2.79941C2.46769 4.03516 2.19922 4.30362 2.19922 4.63535C2.19922 4.96708 2.46769 5.23555 2.79941 5.23555ZM5.40126 5.83574H2.79941C2.46769 5.83574 2.19922 6.10421 2.19922 6.43594C2.19922 6.76766 2.46769 7.03613 2.79941 7.03613H5.40126C5.73299 7.03613 6.00145 6.76766 6.00145 6.43594C6.00145 6.10421 5.73299 5.83574 5.40126 5.83574Z" fill="#191919" fill-opacity="0.6"/>
</svg>
