<svg width="12" height="12" viewBox="0 0 12 12" fill="none" xmlns="http://www.w3.org/2000/svg">
<path d="M7.33203 2.66808C7.33203 3.03658 7.63055 3.33478 7.99873 3.33478H8.66544V4.00148C8.66544 4.36999 8.96395 4.66819 9.33214 4.66819C9.70033 4.66819 9.99884 4.36999 9.99884 4.00148V3.33478H10.6655C11.0337 3.33478 11.3322 3.03658 11.3322 2.66808C11.3322 2.29957 11.0337 2.00137 10.6655 2.00137H9.99884V1.33467C9.99884 0.966165 9.70033 0.667969 9.33214 0.667969C8.96395 0.667969 8.66544 0.966165 8.66544 1.33467V2.00137H7.99873C7.63055 2.00137 7.33203 2.29957 7.33203 2.66808Z" fill="#191919" fill-opacity="0.6"/>
<path d="M6.44574 1.54175C6.28232 0.889368 5.77578 0.383487 5.12405 0.220712C4.54032 0.0747907 3.93999 0.00195341 3.33958 0.00138004C3.33713 0.00134004 3.33506 0 3.33261 0C3.33017 0 3.3281 0.00134005 3.32565 0.00138672C2.72524 0.00195342 2.12491 0.0747907 1.54118 0.220712C0.889449 0.383487 0.382908 0.889368 0.219492 1.5424C-0.073164 2.71434 -0.073164 3.95269 0.219492 5.12528C0.305517 5.46868 0.490627 5.76679 0.737873 6.00037C0.490587 6.23398 0.305517 6.5323 0.219492 6.87603C-0.073164 8.04797 -0.073164 9.28631 0.219492 10.4589C0.382914 11.1113 0.889449 11.6172 1.54085 11.7799C2.12714 11.9264 2.72972 12 3.33261 12C3.93551 12 4.53809 11.9264 5.12405 11.7799C5.46729 11.6942 5.76561 11.5092 5.99939 11.2618C6.23317 11.5092 6.53136 11.6942 6.87447 11.7799C7.46077 11.9264 8.06334 12 8.66624 12C9.26914 12 9.87171 11.9264 10.4577 11.7799C11.1094 11.6172 11.6159 11.1113 11.7794 10.4582C12.072 9.28631 12.072 8.04797 11.7794 6.87537C11.6159 6.22299 11.1094 5.71711 10.4577 5.55434C9.87394 5.40841 9.27361 5.33558 8.6732 5.335C8.67075 5.33496 8.66868 5.33362 8.66624 5.33362C8.6638 5.33362 8.66173 5.33496 8.65928 5.33501C8.05887 5.33558 7.45853 5.40842 6.8748 5.55434C6.53156 5.64008 6.23325 5.82503 5.99947 6.07248C5.97591 6.04754 5.9523 6.02385 5.92736 6.00029C6.17465 5.76667 6.35972 5.46836 6.44574 5.12463C6.7384 3.95269 6.7384 2.71434 6.44574 1.54175ZM6.84681 7.19961C6.8901 7.02578 7.02488 6.891 7.19807 6.84738C7.46171 6.78162 7.72983 6.73787 7.99954 6.70821V7.33373C7.99954 7.70224 8.29805 8.00044 8.66624 8.00044C9.03442 8.00044 9.33294 7.70224 9.33294 7.33373V6.70821C9.60265 6.73787 9.87077 6.78162 10.1344 6.84738C10.3073 6.891 10.4424 7.02578 10.4857 7.19896C10.7256 8.1593 10.7256 9.17498 10.4857 10.1347C10.4424 10.3085 10.3076 10.4433 10.1344 10.4869C9.17441 10.7265 8.15905 10.7265 7.19773 10.4869C7.02487 10.4433 6.8901 10.3085 6.8468 10.1353C6.60688 9.17498 6.60688 8.1593 6.84681 7.19961ZM5.15205 10.1347C5.10875 10.3085 4.97398 10.4433 4.80079 10.4869C3.84078 10.7265 2.82542 10.7265 1.8641 10.4869C1.69124 10.4433 1.55646 10.3085 1.51317 10.1353C1.27325 9.17498 1.27325 8.1593 1.51317 7.19961C1.55646 7.02578 1.69124 6.891 1.86443 6.84738C2.12808 6.78162 2.3962 6.73787 2.66591 6.70821V7.33373C2.66591 7.70224 2.96443 8.00044 3.33261 8.00044C3.7008 8.00044 3.99932 7.70224 3.99932 7.33373V6.70821C4.26903 6.73787 4.53715 6.78162 4.8008 6.84738C4.97366 6.891 5.10876 7.02578 5.15205 7.19896C5.39197 8.1593 5.39197 9.17498 5.15205 10.1347ZM5.15205 4.80104C5.10875 4.97488 4.97398 5.10965 4.80079 5.15327C3.84078 5.39287 2.82542 5.39287 1.8641 5.15327C1.69124 5.10965 1.55646 4.97488 1.51317 4.8017C1.27325 3.84136 1.27325 2.82567 1.51317 1.86599C1.55646 1.69215 1.69124 1.55738 1.86443 1.51376C2.12808 1.448 2.3962 1.40425 2.66591 1.37459V2.00011C2.66591 2.36862 2.96443 2.66681 3.33261 2.66681C3.7008 2.66681 3.99932 2.36862 3.99932 2.00011V1.37459C4.26903 1.40425 4.53715 1.448 4.8008 1.51376C4.97366 1.55738 5.10876 1.69215 5.15205 1.86533C5.39197 2.82567 5.39197 3.84136 5.15205 4.80104Z" fill="#191919" fill-opacity="0.6"/>
</svg>
