<svg width="12" height="11" viewBox="0 0 12 11" fill="none" xmlns="http://www.w3.org/2000/svg">
<path d="M8.35129 1.99386C8.23321 1.86378 8.06827 1.78584 7.88755 1.79814C7.71175 1.80342 7.54741 1.88664 7.43785 2.02434L5.92147 3.93042L5.03107 3.147C4.90189 3.0339 4.72933 2.98236 4.55971 3.00228C4.38889 3.02394 4.23595 3.11772 4.13899 3.2595L2.50273 5.6595C2.31613 5.93316 2.38669 6.30697 2.66035 6.49327C2.76379 6.56365 2.88157 6.59761 2.99785 6.59761C3.18973 6.59761 3.37813 6.50623 3.49411 6.33571L4.74805 4.49641L5.60203 5.24815C5.72539 5.35657 5.88799 5.41219 6.05143 5.39521C6.21517 5.38057 6.36577 5.29968 6.46801 5.1708L7.93783 3.32274L8.55451 4.00128C8.77717 4.2462 9.15595 4.26378 9.40207 4.04172C9.64729 3.81846 9.66517 3.43938 9.44221 3.19386L8.35129 1.99386Z" fill="#191919" fill-opacity="0.6"/>
<path d="M9.6 0H2.4C1.07664 0 0 1.07634 0 2.4V6.6C0 7.92366 1.07664 9 2.4 9H5.4V9.6H4.8C4.46868 9.6 4.2 9.86838 4.2 10.2C4.2 10.5316 4.46868 10.8 4.8 10.8H7.2C7.53132 10.8 7.8 10.5316 7.8 10.2C7.8 9.86838 7.53132 9.6 7.2 9.6H6.6V9H9.6C10.9234 9 12 7.92366 12 6.6V2.4C12 1.07634 10.9234 0 9.6 0ZM10.8 6.6C10.8 7.2615 10.2618 7.8 9.6 7.8H2.4C1.7382 7.8 1.2 7.2615 1.2 6.6V2.4C1.2 1.7385 1.7382 1.2 2.4 1.2H9.6C10.2618 1.2 10.8 1.7385 10.8 2.4V6.6Z" fill="#191919" fill-opacity="0.6"/>
</svg>
