<svg width="20" height="22" viewBox="0 0 20 22" fill="none" xmlns="http://www.w3.org/2000/svg">
<path d="M5.5 0H3.3C1.48027 0 0 1.48027 0 3.3V5.5C0 7.31973 1.48027 8.8 3.3 8.8H5.5C7.31973 8.8 8.8 7.31973 8.8 5.5V3.3C8.8 1.48027 7.31973 0 5.5 0ZM6.6 5.5C6.6 6.10698 6.10698 6.6 5.5 6.6H3.3C2.69302 6.6 2.2 6.10698 2.2 5.5V3.3C2.2 2.69302 2.69302 2.2 3.3 2.2H5.5C6.10698 2.2 6.6 2.69302 6.6 3.3V5.5ZM11 18.7C11 20.5197 12.4803 22 14.3 22H16.5C18.3197 22 19.8 20.5197 19.8 18.7V16.5C19.8 14.6803 18.3197 13.2 16.5 13.2H14.3C12.4803 13.2 11 14.6803 11 16.5V18.7ZM13.2 16.5C13.2 15.893 13.693 15.4 14.3 15.4H16.5C17.107 15.4 17.6 15.893 17.6 16.5V18.7C17.6 19.307 17.107 19.8 16.5 19.8H14.3C13.693 19.8 13.2 19.307 13.2 18.7V16.5ZM14.3 12.1H16.5C18.3197 12.1 19.8 10.6197 19.8 8.8V3.3C19.8 1.48027 18.3197 0 16.5 0H14.3C12.4803 0 11 1.48027 11 3.3V8.8C11 10.6197 12.4803 12.1 14.3 12.1ZM13.2 3.3C13.2 2.69302 13.693 2.2 14.3 2.2H16.5C17.107 2.2 17.6 2.69302 17.6 3.3V8.8C17.6 9.40698 17.107 9.9 16.5 9.9H14.3C13.693 9.9 13.2 9.40698 13.2 8.8V3.3ZM3.3 22H5.5C7.31973 22 8.8 20.5197 8.8 18.7V13.2C8.8 11.3803 7.31973 9.9 5.5 9.9H3.3C1.48027 9.9 0 11.3803 0 13.2V18.7C0 20.5197 1.48027 22 3.3 22ZM2.2 13.2C2.2 12.593 2.69302 12.1 3.3 12.1H5.5C6.10698 12.1 6.6 12.593 6.6 13.2V18.7C6.6 19.307 6.10698 19.8 5.5 19.8H3.3C2.69302 19.8 2.2 19.307 2.2 18.7V13.2Z" fill="#191919"/>
</svg>
