<svg width="10" height="12" viewBox="0 0 10 12" fill="none" xmlns="http://www.w3.org/2000/svg">
<path d="M0.183889 2.75C-0.0612963 5.07644 -0.0612963 7.43598 0.183889 9.76272L0.289633 10.7658C0.330104 11.1477 0.531249 11.4895 0.841406 11.7034C1.13946 11.909 1.51017 11.9751 1.85868 11.8827L2.86979 11.6166C3.05854 11.567 3.25557 11.575 3.43989 11.6393L4.12403 11.878C4.35651 11.9595 4.60109 12 4.84537 12C5.0917 12 5.3381 11.9586 5.57257 11.8759L6.23747 11.6411C6.42295 11.5752 6.62119 11.5672 6.81084 11.6174L7.81989 11.883C8.16816 11.9749 8.53887 11.909 8.83693 11.7034C9.14708 11.4895 9.34823 11.1477 9.3887 10.7658L9.49445 9.76272C9.73963 7.43598 9.73963 5.07644 9.49445 2.75C9.35446 1.42166 8.36991 0.360337 7.10037 0.169234C5.6001 -0.0564113 4.0789 -0.0564113 2.57803 0.169234C1.30842 0.360337 0.323873 1.42166 0.183889 2.75ZM1.38725 2.87704C1.4694 2.09629 2.03327 1.47483 2.75818 1.36552C4.13879 1.15814 5.53954 1.15814 6.92015 1.36552C7.645 1.47483 8.20893 2.09629 8.29102 2.87698C8.52762 5.11921 8.52762 7.39309 8.29102 9.63568L8.18528 10.6388C8.18086 10.6819 8.15896 10.7011 8.14983 10.7077C8.13918 10.7153 8.13356 10.7141 8.12799 10.713L7.11864 10.4471C6.69415 10.3351 6.25108 10.3535 5.83518 10.5L5.16968 10.7351C4.9588 10.8098 4.73515 10.8098 4.52311 10.7357L3.83874 10.4968C3.6048 10.4152 3.36198 10.3745 3.1183 10.3745C2.93192 10.3745 2.74523 10.3985 2.56212 10.4466L1.52856 10.7077C1.51943 10.7012 1.49753 10.6819 1.49312 10.6388L1.38737 9.63568C1.15065 7.39315 1.15065 5.11927 1.38725 2.87704Z" fill="#191919" fill-opacity="0.6"/>
<path d="M3.02292 4.8388H4.23281C4.56686 4.8388 4.83776 4.5679 4.83776 4.23385C4.83776 3.8998 4.56686 3.62891 4.23281 3.62891H3.02292C2.68886 3.62891 2.41797 3.8998 2.41797 4.23385C2.41797 4.5679 2.68886 4.8388 3.02292 4.8388ZM3.02292 6.65364H6.04765C6.3817 6.65364 6.6526 6.38275 6.6526 6.04869C6.6526 5.71464 6.3817 5.44375 6.04765 5.44375H3.02292C2.68886 5.44375 2.41797 5.71464 2.41797 6.04869C2.41797 6.38275 2.68886 6.65364 3.02292 6.65364Z" fill="#191919" fill-opacity="0.6"/>
</svg>
