<svg width="10" height="12" viewBox="0 0 10 12" fill="none" xmlns="http://www.w3.org/2000/svg">
<path d="M9.10442 11.9992C9.11559 11.9997 9.12675 12 9.13791 12C9.43867 12 9.69032 11.7654 9.70761 11.4615C9.71375 11.3533 9.71431 11.2512 9.71431 11.1429C9.71431 10.4976 9.64568 9.8788 9.51344 9.31551C9.4197 8.87637 9.17139 8.4735 8.81595 8.18279C8.04202 7.54277 7.16764 7.03277 6.22018 6.66812L5.62592 6.43628C5.13768 6.23931 4.57745 6.23931 4.09702 6.43321L3.49049 6.66812C2.56534 7.02859 1.71273 7.52436 0.954983 8.14206C0.936567 8.15378 0.919272 8.16633 0.90253 8.18C0.674349 8.3662 0.493141 8.60676 0.347575 8.90567C0.344541 8.91135 0.339033 8.91463 0.336171 8.92045C0.334845 8.92314 0.335262 8.92607 0.333971 8.92876C0.328845 8.93957 0.321657 8.94717 0.316641 8.95812C0.272558 9.06832 0.235733 9.17825 0.203924 9.30742C0.0426629 10.0152 -0.0237374 10.7373 0.00751147 11.4535C0.0214589 11.7687 0.298225 12.0089 0.602886 11.9995C0.918152 11.9858 1.16311 11.7191 1.14916 11.4038C1.12875 10.9357 1.17193 10.4673 1.24653 10.0054L2.2982 10.522C2.3216 10.5367 2.34661 10.547 2.37175 10.5581L4.60758 11.6563C4.68682 11.6951 4.77275 11.7143 4.85868 11.7143C4.95298 11.7143 5.04672 11.6912 5.1321 11.6446L8.44475 9.83999C8.52231 10.2533 8.57155 10.6858 8.57155 11.1429C8.57155 11.2289 8.57211 11.3098 8.56709 11.3957C8.54867 11.711 8.78972 11.981 9.10442 11.9992ZM1.74648 8.97771C2.3948 8.46028 3.1183 8.03956 3.90451 7.73332L4.51719 7.4959C4.73425 7.40913 4.98255 7.40885 5.20408 7.4984L5.70609 7.69433L2.59268 9.39345L1.74648 8.97771ZM4.84473 10.4998L3.84851 10.0104L6.98588 8.29822C7.28178 8.4697 7.56273 8.66402 7.83461 8.87117L4.84473 10.4998ZM8.5894 1.7447C8.3517 0.944538 7.67988 0.346929 6.83731 0.185394C5.55114 -0.0615178 4.24545 -0.0620778 2.95816 0.185394C2.1156 0.346929 1.44378 0.944538 1.20607 1.7447L0.71058 3.40946C0.574425 3.86561 0.645294 4.35776 0.904759 4.75979C1.17371 5.17745 1.6162 5.45645 2.11783 5.52508C3.04018 5.65146 3.96868 5.7148 4.89774 5.7148C5.82679 5.7148 6.75529 5.65146 7.67764 5.52508C8.17928 5.45645 8.62176 5.17745 8.89072 4.75979C9.15018 4.35776 9.22104 3.86561 9.08489 3.40946L8.5894 1.7447ZM7.93042 4.14071C7.84225 4.27742 7.69327 4.36948 7.52252 4.39292C5.78048 4.63174 4.015 4.63174 2.27295 4.39292C2.1022 4.36948 1.95322 4.27742 1.86506 4.14071C1.78582 4.01739 1.76462 3.87343 1.80535 3.73532L2.30085 2.07056C2.41691 1.68108 2.75115 1.3887 3.17355 1.30751C3.74549 1.19787 4.32189 1.1429 4.89774 1.1429C5.47358 1.1429 6.04999 1.19787 6.62193 1.30751C7.04433 1.3887 7.37856 1.68109 7.49462 2.07057L7.99012 3.73533C8.03085 3.87343 8.00965 4.01739 7.93042 4.14071Z" fill="#191919" fill-opacity="0.6"/>
<path d="M4.99269 1.95639L4.49552 2.45384C4.27233 2.67703 4.27233 3.03889 4.49552 3.26209C4.60712 3.3734 4.75331 3.4292 4.8995 3.4292C5.0457 3.4292 5.19189 3.3734 5.30349 3.26181L5.80066 2.76436C6.02385 2.54116 6.02385 2.1793 5.80066 1.95611C5.57746 1.73347 5.21588 1.73319 4.99269 1.95639Z" fill="#191919" fill-opacity="0.6"/>
</svg>
