<svg width="15" height="16" viewBox="0 0 15 16" fill="none" xmlns="http://www.w3.org/2000/svg">
<path d="M0 7.11111C0 6.62019 0.395043 6.22222 0.882353 6.22222C1.36966 6.22222 1.76471 6.62019 1.76471 7.11111V8.88889C1.76471 9.37981 1.36966 9.77778 0.882353 9.77778C0.395043 9.77778 0 9.37981 0 8.88889V7.11111Z" fill="#174488"/>
<path d="M4.41176 0.888889C4.41176 0.39797 4.80681 0 5.29412 0C5.78143 0 6.17647 0.397969 6.17647 0.888889V15.1111C6.17647 15.602 5.78143 16 5.29412 16C4.80681 16 4.41176 15.602 4.41176 15.1111V0.888889Z" fill="#174488"/>
<path d="M8.82353 4.44444C8.82353 3.95352 9.21857 3.55556 9.70588 3.55556C10.1932 3.55556 10.5882 3.95352 10.5882 4.44444V11.5556C10.5882 12.0465 10.1932 12.4444 9.70588 12.4444C9.21857 12.4444 8.82353 12.0465 8.82353 11.5556V4.44444Z" fill="#174488"/>
<path d="M13.2353 6.22222C13.2353 5.7313 13.6303 5.33333 14.1176 5.33333C14.605 5.33333 15 5.7313 15 6.22222V9.77778C15 10.2687 14.605 10.6667 14.1176 10.6667C13.6303 10.6667 13.2353 10.2687 13.2353 9.77778V6.22222Z" fill="#174488"/>
</svg>
