<svg width="13" height="16" viewBox="0 0 13 16" fill="none" xmlns="http://www.w3.org/2000/svg">
<path d="M11.7447 7.15664C11.9727 7.15664 12.2011 7.06926 12.3741 6.89364C12.7184 6.54673 12.7158 5.98527 12.3681 5.64095L6.93864 0.255644C6.59346 -0.0852146 6.03718 -0.0852146 5.692 0.255644L0.262574 5.64095C-0.0852042 5.98527 -0.0877998 6.54673 0.256519 6.89364C0.600405 7.24315 1.16187 7.24402 1.50922 6.90056L5.42565 3.01295L5.42944 15.1141C5.42944 15.6038 5.82609 16 6.31532 16C6.80455 16 7.20121 15.6029 7.20121 15.1141L7.19742 3.00549L11.1214 6.90056C11.294 7.07099 11.5194 7.15664 11.7447 7.15664Z" fill="white"/>
</svg>
