<svg width="16" height="16" viewBox="0 0 16 16" fill="none" xmlns="http://www.w3.org/2000/svg">
<path d="M15.5016 7.01694C15.2436 6.83165 15.2072 6.68312 15.17 6.49708C15.1336 6.34855 15.1336 6.20001 15.06 6.01473C14.9129 5.68092 14.6557 5.71767 14.3978 5.60666C14.2701 5.52937 14.1579 5.42861 14.067 5.3096C13.8716 4.86138 13.6246 4.4379 13.3312 4.04785C12.5789 3.01575 11.5435 2.22869 10.3529 1.7839L10.3157 1.74715C10.095 1.67059 10.1321 1.45009 10.3916 1.45009V1.225H5.71857V1.44779C5.93932 1.44779 6.0129 1.59632 5.86573 1.70734C4.63386 2.15017 3.55916 2.9506 2.77669 4.00804C2.4307 4.4628 2.14625 4.96203 1.93084 5.49258C1.85498 5.60436 1.78368 5.64111 1.74727 5.64111C1.6714 5.60436 1.63726 5.56455 1.63726 5.49258V3.52876C1.63726 3.34271 1.49009 3.19418 1.26934 3.19418H0.754252C0.570669 3.19418 0.38632 3.34271 0.38632 3.52876V7.28031C-0.128773 7.53985 -0.128773 8.65384 0.38632 8.87663V12.6282C0.386521 12.7266 0.425349 12.8209 0.494305 12.8905C0.563261 12.9601 0.656734 12.9993 0.754252 12.9995H1.26934C1.31844 13.0025 1.36761 12.995 1.41361 12.9774C1.4596 12.9598 1.50137 12.9326 1.53615 12.8975C1.57093 12.8624 1.59792 12.8202 1.61535 12.7738C1.63278 12.7274 1.64025 12.6777 1.63726 12.6282V10.6544C1.63726 10.5778 1.67368 10.5426 1.74727 10.5059C1.79243 10.5133 1.83549 10.5304 1.87357 10.556C1.91164 10.5817 1.94385 10.6152 1.96802 10.6544C2.17999 11.1445 2.45191 11.606 2.77745 12.0279C3.58163 13.0792 4.66608 13.8773 5.90366 14.3286C6.01366 14.4396 5.90367 14.5514 5.71933 14.5514V14.7765H10.3901V14.5537C10.1701 14.5537 10.0957 14.4052 10.2429 14.2942C11.4845 13.8505 12.5623 13.0347 13.3319 11.956C13.5493 11.695 13.7345 11.4083 13.8834 11.1023L13.9934 10.9913C14.1034 10.6942 14.2506 10.5832 14.3978 10.5089C14.655 10.3979 14.9129 10.4324 15.06 10.1009C15.1359 9.91482 15.1359 9.76705 15.17 9.61852C15.2072 9.43324 15.2459 9.28471 15.5016 9.09866C15.657 8.97429 15.7825 8.81607 15.8689 8.63583C15.9552 8.45558 16 8.25799 16 8.0578C16 7.85761 15.9552 7.66001 15.8689 7.47977C15.7825 7.29953 15.657 7.14131 15.5016 7.01694ZM1.15863 12.2132L0.825556 12.2132V11.8419H1.15707L1.15863 12.2132ZM1.15863 11.5823L0.825556 11.5823V11.1781H1.15707L1.15863 11.5823ZM1.15935 10.914H0.825556V10.5426H1.15707L1.15935 10.914ZM1.15935 10.2456H0.825556V9.87654H1.15707L1.15935 10.2456ZM1.15935 9.57794H0.825556V9.20662H1.15707L1.15935 9.57794ZM1.15863 8.94702L0.825556 8.94707V8.53899H1.15707L1.15863 8.94702ZM1.15863 8.27937L0.825556 8.27945V7.90812H1.15707L1.15863 8.27937ZM1.15863 7.61095L0.825556 7.61106V7.23973H1.15707L1.15863 7.61095ZM1.15863 6.98017L0.825556 6.98018V6.57211H1.15707L1.15863 6.98017ZM1.15863 6.31178L0.825556 6.3118V5.94123H1.15707L1.15863 6.31178ZM1.15863 5.64334L0.825556 5.64341V5.27285H1.15707L1.15863 5.64334ZM1.15863 4.97568L0.825556 4.97578V4.60446H1.15707L1.15863 4.97568ZM1.15863 4.3449L0.825556 4.34491V3.93683H1.15707L1.15863 4.3449ZM1.82087 9.72639H1.63652V6.46024H1.82087V9.72639ZM3.2182 11.2485C3.18103 11.4338 3.03461 11.3971 2.85027 11.1368L2.77441 11.0602C2.68017 10.9297 2.59404 10.7934 2.51649 10.6521C2.43978 10.5109 2.37824 10.3617 2.33291 10.2073V5.86697C2.3328 5.86211 2.33368 5.85729 2.33547 5.85278C2.33727 5.84828 2.33994 5.84418 2.34334 5.84075C2.34675 5.83732 2.3508 5.83461 2.35526 5.8328C2.35973 5.83099 2.36451 5.83011 2.36932 5.83022C2.44518 5.64417 2.51649 5.45889 2.59008 5.31036C2.66594 5.19935 2.70008 5.08756 2.77366 4.97655C2.81317 4.93586 2.83961 4.8841 2.84952 4.82802C2.95952 4.67949 3.07028 4.60522 3.21744 4.75146L3.2182 11.2485ZM12.2646 12.2132C11.6104 12.8216 10.8324 13.2784 9.98497 13.5515C9.69063 13.6625 9.43346 13.8111 9.43346 14.0339H6.71234C6.67593 13.8111 6.418 13.6625 6.12366 13.5515C5.24064 13.2545 4.43198 12.8096 3.80688 12.2155C3.51254 11.9552 3.65971 11.7699 4.02763 11.9552C5.16554 12.5118 6.56518 12.8456 8.03611 12.8456H8.07329C9.54422 12.8456 10.9416 12.5118 12.0818 11.9552C12.4489 11.7676 12.5589 11.9537 12.2646 12.2132ZM12.3018 8.46167V11.1781C11.1638 11.8457 9.69063 12.2546 8.07253 12.2546H8.03232C6.41421 12.2546 4.94327 11.8465 3.84026 11.2156V8.46473L12.3018 8.46167ZM3.84329 7.64551V4.7905C4.94631 4.15886 6.41728 3.7508 8.03236 3.7508L8.06949 3.75155C9.6876 3.75155 11.1585 4.15963 12.2987 4.79127L12.2988 7.64859H3.8403L3.84329 7.64551ZM12.0446 4.04708C10.7908 3.4487 9.41914 3.14449 8.03233 3.15737C6.63935 3.15206 5.26087 3.44299 3.98667 4.0111C3.61875 4.19715 3.50875 4.04861 3.80309 3.7883C4.46535 3.19418 5.20044 2.71184 6.08346 2.45229C6.3778 2.34128 6.63496 2.19274 6.63496 1.96995H9.39781C9.39781 2.19274 9.69215 2.34128 9.98649 2.45229C10.8439 2.72673 11.6337 3.18215 12.3033 3.7883C12.5961 4.04785 12.4118 4.23313 12.0446 4.04708ZM13.7727 10.1338C13.7016 10.2905 13.6403 10.4516 13.5891 10.6161C13.5118 10.7574 13.4259 10.8937 13.3319 11.0242C13.3287 11.0531 13.3159 11.0801 13.2955 11.1008C13.1484 11.3603 12.964 11.3978 12.9276 11.2493V4.71624C13.0376 4.56771 13.1484 4.63968 13.2584 4.7928C13.2955 4.86936 13.2955 4.90382 13.3342 4.94133C13.4101 5.05235 13.4442 5.16413 13.5178 5.27514C13.6188 5.46608 13.7048 5.66474 13.775 5.86927L13.7727 10.1338ZM14.5085 10.0572H14.2529V6.04842H14.5101L14.5085 10.0572ZM15.3544 8.49842C15.3569 8.51867 15.3548 8.53923 15.3484 8.55857C15.342 8.57792 15.3313 8.59556 15.3172 8.6102L15.2072 8.72121C15.2073 8.72617 15.2064 8.73109 15.2046 8.73569C15.2028 8.74029 15.2 8.74447 15.1966 8.74797C15.1931 8.75148 15.189 8.75424 15.1844 8.75608C15.1798 8.75793 15.175 8.75883 15.17 8.75873C15.1348 8.7799 15.0933 8.78775 15.0528 8.78087C15.0124 8.774 14.9757 8.75286 14.9493 8.72121C14.9129 8.68446 14.8734 8.64465 14.8734 8.6102V7.53679C14.8742 7.50788 14.8815 7.47952 14.8946 7.45381C14.9077 7.4281 14.9264 7.4057 14.9493 7.38826C14.9833 7.37003 15.0212 7.3605 15.0597 7.3605C15.0982 7.3605 15.1361 7.37003 15.17 7.38826H15.2072L15.315 7.50312C15.3291 7.51772 15.3398 7.53535 15.3462 7.5547C15.3526 7.57406 15.3547 7.59463 15.3521 7.61489C15.5016 7.98238 15.4667 8.24193 15.3544 8.49842Z" fill="#191919"/>
<path d="M5.97652 15.2573C6.30727 15.2573 6.49085 15.4426 6.78519 15.6662C7.07877 15.9257 7.55746 16 8.07482 16C8.55275 16 9.03067 15.9234 9.32501 15.6662C9.61935 15.4434 9.80292 15.2949 10.1708 15.2949C10.3908 15.2949 10.3908 15.1096 10.3908 14.9611H5.71859C5.71859 15.1088 5.71859 15.2941 5.97652 15.2573Z" fill="#191919"/>
<path d="M10.1686 0.707436C9.80063 0.707436 9.61705 0.522155 9.32271 0.336108C9.02837 0.0765623 8.55045 0 8.07253 0C7.55743 0 7.07951 0.0765624 6.7829 0.333812C6.48856 0.519858 6.30497 0.705139 5.97422 0.705139C5.71629 0.705139 5.71629 0.89042 5.71629 1.0022H10.387C10.3893 0.893482 10.3893 0.707436 10.1686 0.707436Z" fill="#191919"/>
<path d="M7.00595 4.38155C6.83448 4.4069 6.66303 4.43242 6.49161 4.45811C6.41575 4.94045 6.34445 5.38604 6.27087 5.86839C6.19501 6.2022 6.16086 6.53678 6.08728 6.83384L6.05011 7.24191H6.49161C6.52803 7.09338 6.52803 6.94485 6.56747 6.83384L6.75106 6.79709H6.93541C6.93541 6.94562 6.97258 7.09415 6.97258 7.24268H7.45049C7.37716 6.76034 7.30358 6.27774 7.22975 5.79489C7.15313 5.30948 7.07954 4.86465 7.00595 4.38155ZM6.74878 6.20143H6.63879C6.67596 5.97864 6.67596 5.79336 6.71465 5.60731C6.71465 5.53075 6.71465 5.42203 6.75106 5.38451C6.78133 5.45459 6.79409 5.53109 6.78823 5.60731C6.82464 5.79259 6.82464 5.97864 6.86409 6.16392L6.74878 6.20143Z" fill="#191919"/>
<path d="M8.51407 7.23975V6.60888H7.99898V4.34493H7.55747V7.23975H8.51407Z" fill="#191919"/>
<path d="M6.16011 4.4934L6.08425 4.53015C5.95908 4.54115 5.83561 4.56685 5.71633 4.60671C5.71201 4.78246 5.68654 4.95703 5.64047 5.12657C5.64047 5.31185 5.60406 5.4979 5.60406 5.64566C5.57406 5.74161 5.56172 5.84229 5.56765 5.94272C5.56765 6.01929 5.53047 6.09125 5.53047 6.20227C5.53047 6.05374 5.53048 5.94272 5.49406 5.86846V5.64336C5.45689 5.49483 5.45689 5.3463 5.4182 5.16102C5.38179 5.01249 5.38179 4.86396 5.34234 4.71543C5.23158 4.75295 5.08517 4.79199 4.97441 4.82645C4.938 4.97498 4.938 5.12351 4.89855 5.30879C4.8914 5.45989 4.86592 5.60954 4.82269 5.75438C4.82875 5.85482 4.81641 5.95552 4.78628 6.05144V6.27807C4.78628 6.2015 4.74987 6.12954 4.74987 6.05527C4.75569 5.97938 4.7432 5.90319 4.71345 5.83324C4.71345 5.68471 4.67628 5.57369 4.67628 5.42516C4.63319 5.28029 4.60771 5.13066 4.60042 4.97957C4.45325 5.05613 4.26891 5.1281 4.12174 5.20237C4.1976 5.49943 4.26891 5.83324 4.34249 6.16705C4.41835 6.53838 4.48967 6.87219 4.52608 7.24352H4.96759C5.004 7.09499 5.004 6.9097 5.04345 6.76117C5.07986 6.57589 5.07986 6.42736 5.11931 6.24132V6.09279C5.11931 6.01622 5.15572 5.90674 5.15572 5.79572V6.01852C5.15572 6.09508 5.19214 6.16705 5.19214 6.24132C5.22855 6.4266 5.22855 6.57513 5.268 6.76117C5.27518 6.92433 5.30063 7.08614 5.34386 7.24352H5.78537C5.82254 6.79792 5.89613 6.35233 5.96971 5.90674L6.08653 4.97651L6.16011 4.4934Z" fill="#191919"/>
<path d="M11.2352 6.79491V6.3118H11.2716C11.308 6.3118 11.3474 6.3118 11.3474 6.34932C11.3523 6.34932 11.3571 6.35029 11.3615 6.35219C11.366 6.35408 11.3701 6.35686 11.3734 6.36035C11.3768 6.36384 11.3795 6.36799 11.3813 6.37253C11.3831 6.37708 11.3839 6.38194 11.3838 6.38683C11.4203 6.42358 11.4203 6.53536 11.4597 6.72064C11.4597 6.90669 11.4969 7.05522 11.4969 7.2405H11.9748C11.9317 7.08309 11.9063 6.9213 11.8989 6.75816C11.8783 6.63011 11.8414 6.50529 11.7889 6.38683C11.7613 6.31025 11.7096 6.24491 11.6418 6.20079C11.6796 6.20152 11.7169 6.1915 11.7493 6.17187C11.7818 6.15223 11.8081 6.12379 11.8254 6.08977C11.8722 5.99766 11.8981 5.89618 11.9012 5.79271C11.9012 5.60743 11.8648 5.42138 11.754 5.31037C11.6694 5.16299 11.5409 5.04622 11.3869 4.97656H11.3505C11.1725 4.89818 10.9879 4.83617 10.799 4.79127V7.24127H11.2405L11.2352 6.79491ZM11.2352 5.38387H11.311L11.3482 5.42138C11.3683 5.42138 11.3876 5.42945 11.4018 5.44381C11.4161 5.45816 11.424 5.47764 11.424 5.49794C11.4605 5.53546 11.4605 5.60973 11.4605 5.72074C11.4605 5.7973 11.4605 5.83176 11.424 5.86927C11.424 5.88958 11.4161 5.90905 11.4018 5.92341C11.3876 5.93777 11.3683 5.94583 11.3482 5.94583H11.311C11.2746 5.94583 11.2746 5.90832 11.2352 5.90832V5.38387Z" fill="#191919"/>
<path d="M10.5357 6.68308H10.0578V6.16322C10.2414 6.19997 10.3886 6.19997 10.5357 6.23979V5.68088C10.3886 5.64336 10.2414 5.64336 10.0578 5.60432L10.0586 5.16185C10.2422 5.1986 10.3893 5.23841 10.5365 5.27286V4.71626C10.2422 4.63969 9.94784 4.56773 9.61709 4.49346L9.6163 7.23969H10.5357V6.68308Z" fill="#191919"/>
<path d="M8.69765 5.01328V7.24048H9.17556V5.05309C9.28556 5.05309 9.39633 5.08984 9.50632 5.08984V4.45667C9.13916 4.41916 8.80764 4.38011 8.43972 4.34566H8.36386V5.01328H8.69765Z" fill="#191919"/>
<path d="M10.4265 11.178C10.6101 11.4008 10.7944 11.475 11.0516 11.3633C11.3095 11.2867 11.4931 11.0662 11.6403 10.7699C11.717 10.6284 11.7786 10.479 11.8239 10.3243C11.8545 10.1779 11.867 10.0282 11.861 9.87872C11.8687 9.74159 11.8562 9.60406 11.8239 9.47064C11.785 9.35925 11.7223 9.25784 11.6403 9.17358C11.5729 9.08008 11.4843 9.00428 11.3818 8.95258C11.2794 8.90088 11.1661 8.8748 11.0516 8.87652C10.7944 8.87652 10.6109 8.9883 10.4265 9.24785C10.3501 9.38541 10.3001 9.53635 10.2793 9.69268C10.231 9.87426 10.2055 10.0613 10.2035 10.2493C10.2106 10.4369 10.236 10.6233 10.2793 10.8059C10.3057 10.9379 10.3556 11.0639 10.4265 11.178ZM10.8673 9.61918C10.9044 9.47064 10.9431 9.43389 11.0508 9.39638C11.1267 9.39638 11.198 9.47294 11.2352 9.58166C11.2872 9.73698 11.3129 9.90006 11.311 10.064C11.3122 10.2402 11.2866 10.4155 11.2352 10.5839C11.2258 10.6383 11.2043 10.69 11.1724 10.7349C11.1405 10.7798 11.0989 10.8169 11.0508 10.8434C10.9408 10.8434 10.9044 10.8059 10.8673 10.6949C10.7914 10.5839 10.7914 10.3978 10.7914 10.175C10.7937 9.91241 10.7937 9.7233 10.8673 9.61535V9.61918Z" fill="#191919"/>
<path d="M7.66821 10.283C7.72619 10.3929 7.80066 10.4931 7.88896 10.5801C7.91763 10.5834 7.94435 10.5963 7.96482 10.6168L8.112 10.7654C8.112 10.8021 8.14841 10.8764 8.14841 10.9139C8.14761 10.9428 8.14037 10.9712 8.12724 10.9969C8.11411 11.0226 8.09542 11.045 8.07255 11.0624C8.03538 11.0992 7.99668 11.0992 7.92538 11.0992C7.89084 11.1034 7.85581 11.0986 7.82365 11.0852C7.7915 11.0717 7.76331 11.0502 7.7418 11.0226C7.66342 10.9808 7.59922 10.9163 7.55745 10.8373V11.58C7.62169 11.6523 7.69606 11.7147 7.77821 11.7653C7.85603 11.8126 7.94458 11.8389 8.03538 11.8418C8.12918 11.8373 8.22077 11.8116 8.30347 11.7667C8.38616 11.7218 8.45785 11.6588 8.5133 11.5823C8.63412 11.3807 8.69764 11.1495 8.69688 10.9139C8.69282 10.7747 8.66722 10.637 8.62102 10.5058C8.54449 10.3769 8.44464 10.2637 8.32668 10.172C8.32668 10.1352 8.32668 10.1352 8.28951 10.0954C8.23833 10.0641 8.19522 10.021 8.16371 9.96964C8.1322 9.91827 8.11317 9.86011 8.1082 9.79991C8.10895 9.77098 8.11616 9.7426 8.1293 9.71688C8.14243 9.69116 8.16115 9.66877 8.18406 9.65137C8.18406 9.61386 8.25992 9.57481 8.29406 9.57481C8.32273 9.57551 8.35087 9.58277 8.37636 9.59603C8.40185 9.60929 8.42403 9.62821 8.44123 9.65137C8.51134 9.68881 8.57386 9.7392 8.62557 9.79991V9.05725C8.56102 8.99526 8.48634 8.94501 8.40482 8.90872C8.32326 8.87581 8.23505 8.8632 8.14765 8.87197C8.06159 8.86966 7.97628 8.88878 7.89928 8.92764C7.82228 8.96649 7.75594 9.02389 7.70614 9.09477C7.5852 9.29628 7.52168 9.52756 7.52256 9.76316C7.51418 9.86365 7.52658 9.96481 7.55897 10.0602C7.58781 10.138 7.6244 10.2127 7.66821 10.283Z" fill="#191919"/>
<path d="M9.17555 11.7308C9.35914 11.694 9.54348 11.694 9.72706 11.6542L9.72784 9.54109C9.8606 9.51206 9.99642 9.49972 10.1322 9.50434V8.91021H8.77124L8.77046 9.54111H9.1748L9.17555 11.7308Z" fill="#191919"/>
<path d="M5.90295 11.2117C6.08654 11.508 6.27012 11.694 6.52804 11.7308C6.7488 11.7675 6.96955 11.6542 7.11672 11.397C7.19978 11.2455 7.26156 11.0832 7.3003 10.9146C7.33346 10.7185 7.34592 10.5193 7.33747 10.3205C7.34463 10.1217 7.33217 9.92268 7.3003 9.72637C7.2686 9.56714 7.20623 9.41575 7.11672 9.28078C6.96955 8.98372 6.78597 8.8727 6.52804 8.8727C6.27012 8.8727 6.08654 8.98448 5.90295 9.24403C5.83187 9.37091 5.78213 9.5088 5.75578 9.65211C5.70992 9.83419 5.68447 10.0209 5.67992 10.2087C5.68695 10.3963 5.71236 10.5828 5.75578 10.7653C5.79219 10.9146 5.8324 11.1014 5.90295 11.2117ZM6.34446 9.68962C6.38087 9.54109 6.45446 9.46683 6.52804 9.46683C6.60163 9.46683 6.67521 9.54339 6.71238 9.68962C6.76498 9.89564 6.79049 10.1078 6.78824 10.3205C6.78841 10.521 6.76291 10.7207 6.71238 10.9146C6.67597 11.0256 6.60163 11.0999 6.52804 11.0999C6.45446 11.0999 6.38087 10.9889 6.34446 10.8771C6.2686 10.7286 6.2686 10.5425 6.2686 10.283C6.2686 10.0234 6.27087 9.79987 6.34446 9.68962Z" fill="#191919"/>
<path d="M4.65198 10.2462V11.1014C4.82834 11.2033 5.01282 11.2901 5.20349 11.361V9.46684L5.60482 9.46682V8.91021L4.24386 8.91024V9.31831C4.37385 9.36498 4.51028 9.39081 4.6482 9.39488L4.65198 10.2462Z" fill="#191919"/>
</svg>
